<svg data-v-fde0c5aa="" xmlns="http://www.w3.org/2000/svg" viewBox="0 0 300 300" class="iconAbove"><!----><defs data-v-fde0c5aa=""><!----></defs><rect data-v-fde0c5aa="" fill="transparent" x="0" y="0" width="300px" height="300px" class="logo-background-square"></rect><defs data-v-fde0c5aa=""><!----></defs><g data-v-fde0c5aa="" id="7ba4a6b5-f0f4-47e2-82d0-82dc65c05fe5" fill="#000000" transform="matrix(1.2191119866533704,0,0,1.2191119866533704,19.13443051563541,164.00445501912375)"><path d="M9.50 3.51L9.50 4.46L1.61 8.42L9.50 12.40L9.50 13.36L0.71 8.93L0.71 7.91L9.50 3.51ZM10.77 13.78L12.71 2.80L13.70 2.80L11.76 13.78L10.77 13.78ZM18.42 5.48L18.42 5.48Q19.54 5.48 20.13 6.22L20.13 6.22L20.13 6.22Q20.71 6.96 20.71 8.33L20.71 8.33L20.71 8.33Q20.71 9.03 20.58 9.78L20.58 9.78L20.58 9.78Q20.36 11.03 19.88 11.97L19.88 11.97L19.88 11.97Q19.40 12.91 18.68 13.44L18.68 13.44L18.68 13.44Q17.96 13.96 17.05 13.96L17.05 13.96L17.05 13.96Q15.57 13.96 15.09 12.47L15.09 12.47L15.03 12.47L14.80 13.78L13.81 13.78L15.74 2.80L16.73 2.80L16.02 6.91L16.05 6.91L16.05 6.91Q16.55 6.17 17.12 5.82L17.12 5.82L17.12 5.82Q17.69 5.48 18.42 5.48L18.42 5.48ZM19.60 9.64L19.60 9.64Q19.70 9.03 19.70 8.55L19.70 8.55L19.70 8.55Q19.70 7.83 19.49 7.35L19.49 7.35L19.49 7.35Q19.28 6.87 18.93 6.64L18.93 6.64L18.93 6.64Q18.57 6.41 18.13 6.41L18.13 6.41L18.13 6.41Q17.49 6.41 16.95 6.83L16.95 6.83L16.95 6.83Q16.41 7.24 16.02 8.00L16.02 8.00L16.02 8.00Q15.63 8.76 15.46 9.78L15.46 9.78L15.46 9.78Q15.35 10.39 15.35 10.94L15.35 10.94L15.35 10.94Q15.35 11.94 15.73 12.50L15.73 12.50L15.73 12.50Q16.11 13.05 16.84 13.05L16.84 13.05L16.84 13.05Q17.42 13.05 17.98 12.69L17.98 12.69L17.98 12.69Q18.53 12.33 18.96 11.56L18.96 11.56L18.96 11.56Q19.39 10.79 19.60 9.64L19.60 9.64ZM25.25 5.48L25.25 5.48Q27.53 5.48 27.53 8.09L27.53 8.09L27.53 8.09Q27.53 8.74 27.36 9.70L27.36 9.70L27.36 9.70Q27.31 10.01 27.28 10.14L27.28 10.14L22.49 10.14L22.49 10.14Q22.44 10.55 22.44 10.84L22.44 10.84L22.44 10.84Q22.44 11.81 22.85 12.41L22.85 12.41L22.85 12.41Q23.26 13.02 24.11 13.02L24.11 13.02L24.11 13.02Q25.14 13.02 26.07 12.20L26.07 12.20L26.58 12.92L26.58 12.92Q25.96 13.47 25.33 13.71L25.33 13.71L25.33 13.71Q24.71 13.94 24.07 13.94L24.07 13.94L24.07 13.94Q23.18 13.94 22.60 13.52L22.60 13.52L22.60 13.52Q22.03 13.10 21.75 12.40L21.75 12.40L21.75 12.40Q21.48 11.69 21.48 10.80L21.48 10.80L21.48 10.80Q21.48 10.26 21.59 9.63L21.59 9.63L21.59 9.63Q21.79 8.52 22.23 7.58L22.23 7.58L22.23 7.58Q22.67 6.65 23.42 6.06L23.42 6.06L23.42 6.06Q24.18 5.48 25.25 5.48L25.25 5.48ZM25.18 6.40L25.18 6.40Q24.13 6.40 23.52 7.21L23.52 7.21L23.52 7.21Q22.91 8.02 22.65 9.26L22.65 9.26L26.53 9.26L26.53 9.26Q26.65 8.48 26.65 7.99L26.65 7.99L26.65 7.99Q26.65 7.19 26.32 6.79L26.32 6.79L26.32 6.79Q25.98 6.40 25.18 6.40L25.18 6.40ZM28.10 13.78L29.54 5.63L30.54 5.63L30.31 6.87L30.37 6.87L30.37 6.87Q30.78 6.21 31.31 5.84L31.31 5.84L31.31 5.84Q31.83 5.48 32.45 5.48L32.45 5.48L32.45 5.48Q33.33 5.48 33.80 6.00L33.80 6.00L33.80 6.00Q34.28 6.53 34.28 7.46L34.28 7.46L34.28 7.46Q34.28 7.83 34.21 8.22L34.21 8.22L33.23 13.78L32.24 13.78L33.22 8.24L33.22 8.24Q33.29 7.81 33.29 7.52L33.29 7.52L33.29 7.52Q33.29 6.92 33.03 6.67L33.03 6.67L33.03 6.67Q32.77 6.41 32.27 6.41L32.27 6.41L32.27 6.41Q31.73 6.41 31.24 6.74L31.24 6.74L31.24 6.74Q30.75 7.08 30.41 7.67L30.41 7.67L30.41 7.67Q30.06 8.26 29.93 9.02L29.93 9.02L29.09 13.78L28.10 13.78ZM36.79 4.29L37.05 2.80L38.06 2.80L37.80 4.29L36.79 4.29ZM35.12 13.78L36.55 5.63L37.56 5.63L36.12 13.78L35.12 13.78ZM41.99 5.48L41.99 5.48Q44.28 5.48 44.28 8.09L44.28 8.09L44.28 8.09Q44.28 8.74 44.11 9.70L44.11 9.70L44.11 9.70Q44.06 10.01 44.02 10.14L44.02 10.14L39.24 10.14L39.24 10.14Q39.19 10.55 39.19 10.84L39.19 10.84L39.19 10.84Q39.19 11.81 39.60 12.41L39.60 12.41L39.60 12.41Q40.00 13.02 40.86 13.02L40.86 13.02L40.86 13.02Q41.89 13.02 42.81 12.20L42.81 12.20L43.33 12.92L43.33 12.92Q42.70 13.47 42.08 13.71L42.08 13.71L42.08 13.71Q41.46 13.94 40.82 13.94L40.82 13.94L40.82 13.94Q39.93 13.94 39.35 13.52L39.35 13.52L39.35 13.52Q38.77 13.10 38.50 12.40L38.50 12.40L38.50 12.40Q38.23 11.69 38.23 10.80L38.23 10.80L38.23 10.80Q38.23 10.26 38.34 9.63L38.34 9.63L38.34 9.63Q38.53 8.52 38.98 7.58L38.98 7.58L38.98 7.58Q39.42 6.65 40.17 6.06L40.17 6.06L40.17 6.06Q40.93 5.48 41.99 5.48L41.99 5.48ZM41.92 6.40L41.92 6.40Q40.88 6.40 40.27 7.21L40.27 7.21L40.27 7.21Q39.66 8.02 39.40 9.26L39.40 9.26L43.28 9.26L43.28 9.26Q43.40 8.48 43.40 7.99L43.40 7.99L43.40 7.99Q43.40 7.19 43.07 6.79L43.07 6.79L43.07 6.79Q42.73 6.40 41.92 6.40L41.92 6.40ZM47.84 13.78L49.28 5.63L50.29 5.63L50.04 6.94L50.08 6.94L50.08 6.94Q50.44 6.24 50.90 5.88L50.90 5.88L50.90 5.88Q51.36 5.51 51.86 5.51L51.86 5.51L51.86 5.51Q52.38 5.51 52.68 5.65L52.68 5.65L52.52 6.56L52.52 6.56Q52.27 6.48 52.04 6.48L52.04 6.48L52.04 6.48Q51.94 6.48 51.90 6.49L51.90 6.49L51.90 6.49Q51.04 6.56 50.44 7.32L50.44 7.32L50.44 7.32Q49.84 8.08 49.60 9.43L49.60 9.43L48.84 13.78L47.84 13.78ZM54.74 13.96L54.74 13.96Q53.57 13.96 52.90 13.22L52.90 13.22L52.90 13.22Q52.23 12.48 52.23 11.03L52.23 11.03L52.23 11.03Q52.23 10.40 52.36 9.67L52.36 9.67L52.36 9.67Q52.61 8.26 53.15 7.32L53.15 7.32L53.15 7.32Q53.70 6.38 54.45 5.93L54.45 5.93L54.45 5.93Q55.21 5.48 56.11 5.48L56.11 5.48L56.11 5.48Q57.26 5.48 57.93 6.22L57.93 6.22L57.93 6.22Q58.60 6.97 58.60 8.43L58.60 8.43L58.60 8.43Q58.60 9.07 58.47 9.81L58.47 9.81L58.47 9.81Q58.24 11.19 57.69 12.12L57.69 12.12L57.69 12.12Q57.14 13.05 56.38 13.50L56.38 13.50L56.38 13.50Q55.62 13.96 54.74 13.96L54.74 13.96ZM54.78 13.04L54.78 13.04Q55.82 13.04 56.53 12.22L56.53 12.22L56.53 12.22Q57.24 11.41 57.54 9.67L57.54 9.67L57.54 9.67Q57.67 8.96 57.67 8.38L57.67 8.38L57.67 8.38Q57.67 6.38 56.07 6.38L56.07 6.38L56.07 6.38Q55.06 6.38 54.35 7.21L54.35 7.21L54.35 7.21Q53.63 8.04 53.32 9.81L53.32 9.81L53.32 9.81Q53.20 10.53 53.20 11.07L53.20 11.07L53.20 11.07Q53.20 13.04 54.78 13.04L54.78 13.04ZM59.28 13.78L61.22 2.80L62.21 2.80L60.27 13.78L59.28 13.78ZM66.16 5.48L66.16 5.48Q68.44 5.48 68.44 8.09L68.44 8.09L68.44 8.09Q68.44 8.74 68.28 9.70L68.28 9.70L68.28 9.70Q68.22 10.01 68.19 10.14L68.19 10.14L63.40 10.14L63.40 10.14Q63.36 10.55 63.36 10.84L63.36 10.84L63.36 10.84Q63.36 11.81 63.76 12.41L63.76 12.41L63.76 12.41Q64.17 13.02 65.02 13.02L65.02 13.02L65.02 13.02Q66.06 13.02 66.98 12.20L66.98 12.20L67.49 12.92L67.49 12.92Q66.87 13.47 66.25 13.71L66.25 13.71L66.25 13.71Q65.63 13.94 64.98 13.94L64.98 13.94L64.98 13.94Q64.09 13.94 63.52 13.52L63.52 13.52L63.52 13.52Q62.94 13.10 62.67 12.40L62.67 12.40L62.67 12.40Q62.39 11.69 62.39 10.80L62.39 10.80L62.39 10.80Q62.39 10.26 62.50 9.63L62.50 9.63L62.50 9.63Q62.70 8.52 63.14 7.58L63.14 7.58L63.14 7.58Q63.58 6.65 64.34 6.06L64.34 6.06L64.34 6.06Q65.09 5.48 66.16 5.48L66.16 5.48ZM66.09 6.40L66.09 6.40Q65.04 6.40 64.44 7.21L64.44 7.21L64.44 7.21Q63.83 8.02 63.56 9.26L63.56 9.26L67.44 9.26L67.44 9.26Q67.57 8.48 67.57 7.99L67.57 7.99L67.57 7.99Q67.57 7.19 67.23 6.79L67.23 6.79L67.23 6.79Q66.90 6.40 66.09 6.40L66.09 6.40ZM70.05 7.93L70.05 7.03L77.22 7.03L77.22 7.93L70.05 7.93ZM70.05 10.68L70.05 9.79L77.22 9.79L77.22 10.68L70.05 10.68ZM80.27 6.99L81.01 2.80L81.89 2.80L81.15 6.99L80.27 6.99ZM82.19 6.99L82.93 2.80L83.78 2.80L83.04 6.99L82.19 6.99ZM84.33 13.78L86.27 2.80L91.49 2.80L91.31 3.76L87.14 3.76L86.43 7.81L90.06 7.81L89.89 8.77L86.26 8.77L85.38 13.78L84.33 13.78ZM90.79 13.78L92.23 5.63L93.24 5.63L92.99 6.94L93.03 6.94L93.03 6.94Q93.39 6.24 93.85 5.88L93.85 5.88L93.85 5.88Q94.31 5.51 94.81 5.51L94.81 5.51L94.81 5.51Q95.33 5.51 95.63 5.65L95.63 5.65L95.47 6.56L95.47 6.56Q95.22 6.48 94.99 6.48L94.99 6.48L94.99 6.48Q94.89 6.48 94.85 6.49L94.85 6.49L94.85 6.49Q93.99 6.56 93.39 7.32L93.39 7.32L93.39 7.32Q92.79 8.08 92.55 9.43L92.55 9.43L91.79 13.78L90.79 13.78ZM97.69 13.96L97.69 13.96Q96.52 13.96 95.85 13.22L95.85 13.22L95.85 13.22Q95.18 12.48 95.18 11.03L95.18 11.03L95.18 11.03Q95.18 10.40 95.31 9.67L95.31 9.67L95.31 9.67Q95.56 8.26 96.10 7.32L96.10 7.32L96.10 7.32Q96.65 6.38 97.40 5.93L97.40 5.93L97.40 5.93Q98.16 5.48 99.06 5.48L99.06 5.48L99.06 5.48Q100.21 5.48 100.88 6.22L100.88 6.22L100.88 6.22Q101.55 6.97 101.55 8.43L101.55 8.43L101.55 8.43Q101.55 9.07 101.42 9.81L101.42 9.81L101.42 9.81Q101.19 11.19 100.64 12.12L100.64 12.12L100.64 12.12Q100.09 13.05 99.33 13.50L99.33 13.50L99.33 13.50Q98.57 13.96 97.69 13.96L97.69 13.96ZM97.73 13.04L97.73 13.04Q98.77 13.04 99.48 12.22L99.48 12.22L99.48 12.22Q100.19 11.41 100.50 9.67L100.50 9.67L100.50 9.67Q100.63 8.96 100.63 8.38L100.63 8.38L100.63 8.38Q100.63 6.38 99.02 6.38L99.02 6.38L99.02 6.38Q98.01 6.38 97.30 7.21L97.30 7.21L97.30 7.21Q96.58 8.04 96.27 9.81L96.27 9.81L96.27 9.81Q96.15 10.53 96.15 11.07L96.15 11.07L96.15 11.07Q96.15 13.04 97.73 13.04L97.73 13.04ZM102.23 13.78L103.67 5.63L104.67 5.63L104.44 6.87L104.49 6.87L104.49 6.87Q104.91 6.21 105.44 5.84L105.44 5.84L105.44 5.84Q105.96 5.48 106.58 5.48L106.58 5.48L106.58 5.48Q107.45 5.48 107.93 6.00L107.93 6.00L107.93 6.00Q108.40 6.53 108.40 7.46L108.40 7.46L108.40 7.46Q108.40 7.83 108.34 8.22L108.34 8.22L107.36 13.78L106.37 13.78L107.34 8.24L107.34 8.24Q107.42 7.81 107.42 7.52L107.42 7.52L107.42 7.52Q107.42 6.92 107.16 6.67L107.16 6.67L107.16 6.67Q106.90 6.41 106.39 6.41L106.39 6.41L106.39 6.41Q105.85 6.41 105.37 6.74L105.37 6.74L105.37 6.74Q104.88 7.08 104.54 7.67L104.54 7.67L104.54 7.67Q104.19 8.26 104.06 9.02L104.06 9.02L103.22 13.78L102.23 13.78ZM111.08 13.78L111.08 13.78Q109.68 13.78 109.68 12.37L109.68 12.37L109.68 12.37Q109.68 12.07 109.74 11.71L109.74 11.71L110.67 6.45L109.68 6.45L109.83 5.63L110.81 5.63L111.30 3.76L112.12 3.76L111.79 5.63L113.54 5.63L113.40 6.45L111.65 6.45L110.75 11.59L110.75 11.59Q110.68 11.95 110.68 12.23L110.68 12.23L110.68 12.23Q110.68 12.62 110.85 12.79L110.85 12.79L110.85 12.79Q111.03 12.95 111.43 12.95L111.43 12.95L112.08 12.95L111.94 13.78L111.08 13.78ZM113.52 13.78L115.46 2.80L120.69 2.80L120.52 3.76L116.33 3.76L115.62 7.81L119.25 7.81L119.08 8.77L115.45 8.77L114.74 12.82L118.92 12.82L118.75 13.78L113.52 13.78ZM120.24 13.78L121.68 5.63L122.68 5.63L122.45 6.87L122.51 6.87L122.51 6.87Q122.92 6.21 123.45 5.84L123.45 5.84L123.45 5.84Q123.98 5.48 124.59 5.48L124.59 5.48L124.59 5.48Q125.47 5.48 125.94 6.00L125.94 6.00L125.94 6.00Q126.42 6.53 126.42 7.46L126.42 7.46L126.42 7.46Q126.42 7.83 126.35 8.22L126.35 8.22L125.37 13.78L124.38 13.78L125.36 8.24L125.36 8.24Q125.43 7.81 125.43 7.52L125.43 7.52L125.43 7.52Q125.43 6.92 125.17 6.67L125.17 6.67L125.17 6.67Q124.91 6.41 124.41 6.41L124.41 6.41L124.41 6.41Q123.87 6.41 123.38 6.74L123.38 6.74L123.38 6.74Q122.90 7.08 122.55 7.67L122.55 7.67L122.55 7.67Q122.21 8.26 122.08 9.02L122.08 9.02L121.24 13.78L120.24 13.78ZM133.76 2.80L134.75 2.80L132.82 13.78L131.82 13.78L132.04 12.50L132.01 12.50L132.01 12.50Q131.53 13.24 130.95 13.60L130.95 13.60L130.95 13.60Q130.37 13.96 129.63 13.96L129.63 13.96L129.63 13.96Q128.50 13.96 127.92 13.18L127.92 13.18L127.92 13.18Q127.35 12.41 127.35 11.05L127.35 11.05L127.35 11.05Q127.35 10.40 127.48 9.64L127.48 9.64L127.48 9.64Q127.72 8.33 128.20 7.39L128.20 7.39L128.20 7.39Q128.69 6.45 129.40 5.96L129.40 5.96L129.40 5.96Q130.12 5.48 131.00 5.48L131.00 5.48L131.00 5.48Q131.78 5.48 132.25 5.84L132.25 5.84L132.25 5.84Q132.72 6.21 132.97 6.94L132.97 6.94L133.03 6.94L133.76 2.80ZM129.92 13.05L129.92 13.05Q130.56 13.05 131.10 12.63L131.10 12.63L131.10 12.63Q131.65 12.22 132.03 11.45L132.03 11.45L132.03 11.45Q132.42 10.68 132.60 9.64L132.60 9.64L132.60 9.64Q132.71 9.05 132.71 8.52L132.71 8.52L132.71 8.52Q132.71 7.53 132.33 6.97L132.33 6.97L132.33 6.97Q131.94 6.41 131.22 6.41L131.22 6.41L131.22 6.41Q130.63 6.41 130.08 6.77L130.08 6.77L130.08 6.77Q129.52 7.14 129.09 7.89L129.09 7.89L129.09 7.89Q128.66 8.65 128.46 9.78L128.46 9.78L128.46 9.78Q128.35 10.39 128.35 10.92L128.35 10.92L128.35 10.92Q128.35 11.99 128.79 12.52L128.79 12.52L128.79 12.52Q129.22 13.05 129.92 13.05L129.92 13.05ZM138.11 13.78L140.05 2.80L142.31 2.80L142.31 2.80Q144.08 2.80 145.00 3.79L145.00 3.79L145.00 3.79Q145.93 4.79 145.93 6.70L145.93 6.70L145.93 6.70Q145.93 7.50 145.76 8.46L145.76 8.46L145.76 8.46Q145.46 10.17 144.74 11.36L144.74 11.36L144.74 11.36Q144.01 12.55 142.92 13.17L142.92 13.17L142.92 13.17Q141.82 13.78 140.41 13.78L140.41 13.78L138.11 13.78ZM139.33 12.80L140.37 12.80L140.37 12.80Q142.16 12.80 143.25 11.67L143.25 11.67L143.25 11.67Q144.33 10.53 144.74 8.22L144.74 8.22L144.74 8.22Q144.89 7.32 144.89 6.63L144.89 6.63L144.89 6.63Q144.89 5.18 144.22 4.48L144.22 4.48L144.22 4.48Q143.55 3.77 142.16 3.77L142.16 3.77L140.92 3.77L139.33 12.80ZM150.31 5.48L150.31 5.48Q152.59 5.48 152.59 8.09L152.59 8.09L152.59 8.09Q152.59 8.74 152.43 9.70L152.43 9.70L152.43 9.70Q152.37 10.01 152.34 10.14L152.34 10.14L147.55 10.14L147.55 10.14Q147.51 10.55 147.51 10.84L147.51 10.84L147.51 10.84Q147.51 11.81 147.91 12.41L147.91 12.41L147.91 12.41Q148.32 13.02 149.17 13.02L149.17 13.02L149.17 13.02Q150.21 13.02 151.13 12.20L151.13 12.20L151.64 12.92L151.64 12.92Q151.02 13.47 150.40 13.71L150.40 13.71L150.40 13.71Q149.78 13.94 149.13 13.94L149.13 13.94L149.13 13.94Q148.24 13.94 147.67 13.52L147.67 13.52L147.67 13.52Q147.09 13.10 146.82 12.40L146.82 12.40L146.82 12.40Q146.54 11.69 146.54 10.80L146.54 10.80L146.54 10.80Q146.54 10.26 146.65 9.63L146.65 9.63L146.65 9.63Q146.85 8.52 147.29 7.58L147.29 7.58L147.29 7.58Q147.73 6.65 148.49 6.06L148.49 6.06L148.49 6.06Q149.24 5.48 150.31 5.48L150.31 5.48ZM150.24 6.40L150.24 6.40Q149.19 6.40 148.59 7.21L148.59 7.21L148.59 7.21Q147.98 8.02 147.71 9.26L147.71 9.26L151.59 9.26L151.59 9.26Q151.72 8.48 151.72 7.99L151.72 7.99L151.72 7.99Q151.72 7.19 151.38 6.79L151.38 6.79L151.38 6.79Q151.05 6.40 150.24 6.40L150.24 6.40ZM158.07 5.63L159.15 5.63L155.70 13.78L154.28 13.78L153.70 5.63L154.77 5.63L154.95 10.06L155.09 13.15L158.07 5.63ZM162.70 5.48L162.70 5.48Q164.98 5.48 164.98 8.09L164.98 8.09L164.98 8.09Q164.98 8.74 164.81 9.70L164.81 9.70L164.81 9.70Q164.76 10.01 164.73 10.14L164.73 10.14L159.94 10.14L159.94 10.14Q159.89 10.55 159.89 10.84L159.89 10.84L159.89 10.84Q159.89 11.81 160.30 12.41L160.30 12.41L160.30 12.41Q160.71 13.02 161.56 13.02L161.56 13.02L161.56 13.02Q162.59 13.02 163.52 12.20L163.52 12.20L164.03 12.92L164.03 12.92Q163.41 13.47 162.78 13.71L162.78 13.71L162.78 13.71Q162.16 13.94 161.52 13.94L161.52 13.94L161.52 13.94Q160.63 13.94 160.05 13.52L160.05 13.52L160.05 13.52Q159.48 13.10 159.20 12.40L159.20 12.40L159.20 12.40Q158.93 11.69 158.93 10.80L158.93 10.80L158.93 10.80Q158.93 10.26 159.04 9.63L159.04 9.63L159.04 9.63Q159.24 8.52 159.68 7.58L159.68 7.58L159.68 7.58Q160.12 6.65 160.87 6.06L160.87 6.06L160.87 6.06Q161.63 5.48 162.70 5.48L162.70 5.48ZM162.63 6.40L162.63 6.40Q161.58 6.40 160.97 7.21L160.97 7.21L160.97 7.21Q160.36 8.02 160.10 9.26L160.10 9.26L163.98 9.26L163.98 9.26Q164.10 8.48 164.10 7.99L164.10 7.99L164.10 7.99Q164.10 7.19 163.77 6.79L163.77 6.79L163.77 6.79Q163.43 6.40 162.63 6.40L162.63 6.40ZM165.55 13.78L167.49 2.80L168.48 2.80L166.54 13.78L165.55 13.78ZM171.16 13.96L171.16 13.96Q169.99 13.96 169.32 13.22L169.32 13.22L169.32 13.22Q168.66 12.48 168.66 11.03L168.66 11.03L168.66 11.03Q168.66 10.40 168.79 9.67L168.79 9.67L168.79 9.67Q169.03 8.26 169.58 7.32L169.58 7.32L169.58 7.32Q170.12 6.38 170.87 5.93L170.87 5.93L170.87 5.93Q171.63 5.48 172.53 5.48L172.53 5.48L172.53 5.48Q173.69 5.48 174.36 6.22L174.36 6.22L174.36 6.22Q175.03 6.97 175.03 8.43L175.03 8.43L175.03 8.43Q175.03 9.07 174.90 9.81L174.90 9.81L174.90 9.81Q174.66 11.19 174.11 12.12L174.11 12.12L174.11 12.12Q173.56 13.05 172.81 13.50L172.81 13.50L172.81 13.50Q172.05 13.96 171.16 13.96L171.16 13.96ZM171.20 13.04L171.20 13.04Q172.24 13.04 172.95 12.22L172.95 12.22L172.95 12.22Q173.66 11.41 173.97 9.67L173.97 9.67L173.97 9.67Q174.10 8.96 174.10 8.38L174.10 8.38L174.10 8.38Q174.10 6.38 172.49 6.38L172.49 6.38L172.49 6.38Q171.48 6.38 170.77 7.21L170.77 7.21L170.77 7.21Q170.06 8.04 169.74 9.81L169.74 9.81L169.74 9.81Q169.62 10.53 169.62 11.07L169.62 11.07L169.62 11.07Q169.62 13.04 171.20 13.04L171.20 13.04ZM175.21 16.61L177.15 5.63L178.12 5.63L177.91 6.78L177.99 6.78L177.99 6.78Q178.86 5.48 180.33 5.48L180.33 5.48L180.33 5.48Q181.44 5.48 182.02 6.21L182.02 6.21L182.02 6.21Q182.60 6.95 182.60 8.32L182.60 8.32L182.60 8.32Q182.60 9.02 182.46 9.78L182.46 9.78L182.46 9.78Q182.23 11.10 181.75 12.04L181.75 12.04L181.75 12.04Q181.26 12.97 180.55 13.47L180.55 13.47L180.55 13.47Q179.84 13.96 178.95 13.96L178.95 13.96L178.95 13.96Q177.58 13.96 176.91 12.76L176.91 12.76L176.88 12.76L176.20 16.61L175.21 16.61ZM178.72 13.10L178.72 13.10Q179.76 13.10 180.47 12.25L180.47 12.25L180.47 12.25Q181.19 11.41 181.50 9.64L181.50 9.64L181.50 9.64Q181.63 8.91 181.63 8.33L181.63 8.33L181.63 8.33Q181.63 6.34 180.03 6.34L180.03 6.34L180.03 6.34Q179.39 6.34 178.83 6.75L178.83 6.75L178.83 6.75Q178.27 7.17 177.87 7.95L177.87 7.95L177.87 7.95Q177.47 8.73 177.29 9.78L177.29 9.78L177.29 9.78Q177.18 10.38 177.18 10.92L177.18 10.92L177.18 10.92Q177.18 11.96 177.58 12.53L177.58 12.53L177.58 12.53Q177.98 13.10 178.72 13.10L178.72 13.10ZM187.14 5.48L187.14 5.48Q189.42 5.48 189.42 8.09L189.42 8.09L189.42 8.09Q189.42 8.74 189.26 9.70L189.26 9.70L189.26 9.70Q189.21 10.01 189.17 10.14L189.17 10.14L184.39 10.14L184.39 10.14Q184.34 10.55 184.34 10.84L184.34 10.84L184.34 10.84Q184.34 11.81 184.74 12.41L184.74 12.41L184.74 12.41Q185.15 13.02 186.01 13.02L186.01 13.02L186.01 13.02Q187.04 13.02 187.96 12.20L187.96 12.20L188.47 12.92L188.47 12.92Q187.85 13.47 187.23 13.71L187.23 13.71L187.23 13.71Q186.61 13.94 185.96 13.94L185.96 13.94L185.96 13.94Q185.08 13.94 184.50 13.52L184.50 13.52L184.50 13.52Q183.92 13.10 183.65 12.40L183.65 12.40L183.65 12.40Q183.37 11.69 183.37 10.80L183.37 10.80L183.37 10.80Q183.37 10.26 183.48 9.63L183.48 9.63L183.48 9.63Q183.68 8.52 184.12 7.58L184.12 7.58L184.12 7.58Q184.56 6.65 185.32 6.06L185.32 6.06L185.32 6.06Q186.07 5.48 187.14 5.48L187.14 5.48ZM187.07 6.40L187.07 6.40Q186.03 6.40 185.42 7.21L185.42 7.21L185.42 7.21Q184.81 8.02 184.54 9.26L184.54 9.26L188.43 9.26L188.43 9.26Q188.55 8.48 188.55 7.99L188.55 7.99L188.55 7.99Q188.55 7.19 188.21 6.79L188.21 6.79L188.21 6.79Q187.88 6.40 187.07 6.40L187.07 6.40ZM190.00 13.78L191.43 5.63L192.44 5.63L192.19 6.94L192.23 6.94L192.23 6.94Q192.59 6.24 193.05 5.88L193.05 5.88L193.05 5.88Q193.51 5.51 194.02 5.51L194.02 5.51L194.02 5.51Q194.54 5.51 194.83 5.65L194.83 5.65L194.67 6.56L194.67 6.56Q194.42 6.48 194.19 6.48L194.19 6.48L194.19 6.48Q194.09 6.48 194.05 6.49L194.05 6.49L194.05 6.49Q193.19 6.56 192.59 7.32L192.59 7.32L192.59 7.32Q191.99 8.08 191.75 9.43L191.75 9.43L190.99 13.78L190.00 13.78ZM195.71 6.99L196.44 2.80L197.32 2.80L196.58 6.99L195.71 6.99ZM197.62 6.99L198.36 2.80L199.21 2.80L198.47 6.99L197.62 6.99ZM198.15 14.99L204.10 2.80L205.11 2.80L199.15 14.99L198.15 14.99ZM205.19 3.51L213.98 7.91L213.98 8.93L205.19 13.36L205.19 12.40L213.08 8.42L205.19 4.46L205.19 3.51Z"></path></g><defs data-v-fde0c5aa=""><linearGradient data-v-fde0c5aa="" gradientTransform="rotate(25)" id="5817f90e-d8df-40b8-8bfe-dffe6016ef46" x1="0%" y1="0%" x2="100%" y2="0%"><stop data-v-fde0c5aa="" offset="0%" stop-color="#E90DCA" stop-opacity="1"></stop><stop data-v-fde0c5aa="" offset="100%" stop-color="#1536F1" stop-opacity="1"></stop></linearGradient></defs><g data-v-fde0c5aa="" id="727894d9-5777-47ce-95ba-079449a3c77b" stroke="none" fill="url(#5817f90e-d8df-40b8-8bfe-dffe6016ef46)" transform="matrix(0.4448068091403995,0,0,0.4448068091403995,127.7596591187792,110.36393102045498)"><path d="M84.7 25.7c-.5-2.2-1.3-4.4-2.4-6.5 3.2 1.2 5.8 3.5 7.4 6.5h-5zm-12.5-6.5c-3.2 1.2-5.9 3.5-7.6 6.5h5c.6-2.3 1.5-4.5 2.6-6.5zm3.9-.9c-1.5 2.3-2.7 4.8-3.4 7.4h9c-.7-2.6-1.8-5.1-3.3-7.4-.4 0-.8-.1-1.3-.1-.3.1-.6.1-1 .1zM15.4 66.2V72h61.8V57c2.6 0 5.2-.4 7.7-1.2v15.8c0 1 .3 2 1 2.7l3.9 4.8c.3.4.5.8.5 1.3v2.2c0 2.9-2.3 5.2-5.2 5.2H7.5c-2.9 0-5.2-2.3-5.2-5.2v-2.2c0-.5.2-.9.5-1.3l4-4.9c.6-.8 1-1.7 1-2.7V32.6c0-4.2 3.4-7.7 7.7-7.7H54c-.8 2.5-1.2 5.1-1.2 7.7H15.4v33.6zM38 80.3c0 1.5 1.2 2.7 2.7 2.7H52c1.5 0 2.7-1.2 2.7-2.7v-.6H38v.6zm30.8-47.5c0-1.4.1-2.8.3-4.2h-5.7c-.4 1.3-.6 2.6-.6 4s.2 2.7.6 3.9H69c-.1-1.2-.2-2.5-.2-3.7zm-4.2 6.7c1.6 2.9 4.2 5.2 7.3 6.5-1.1-2.1-1.8-4.2-2.4-6.5h-4.9zm7.1-6.7c0 1.3.1 2.5.3 3.8h10.3c.2-1.4.3-2.7.3-4.1 0-1.3-.1-2.5-.3-3.8H72.1c-.3 1.3-.4 2.7-.4 4.1zm20-14.7c8 8 8 21 0 28.9-6.7 6.7-17 7.8-24.8 3.2-3.1 2.3-6.4 2.7-8.7 2.4-.8-.1-.9-1.2-.2-1.5 2.1-1 3.4-3.1 4.2-4.8l-.2-.2c-7.1-8-6.8-20.3.9-28 7.8-8 20.8-8 28.8 0zm-2.3 2.3c-3.3-3.3-7.6-5.1-12.2-5.1s-8.9 1.8-12.2 5.1c-3.2 3.3-5 7.6-5 12.2s1.8 8.9 5.1 12.2c3.3 3.3 7.6 5.1 12.2 5.1s8.9-1.8 12.2-5.1c3.3-3.3 5.1-7.6 5.1-12.2-.1-4.6-1.9-8.9-5.2-12.2zM75.9 46.9c.4 0 .9.1 1.3.1h1c1.5-2.3 2.7-4.8 3.4-7.4h-9.1c.8 2.5 1.9 5 3.4 7.3zm9.6-14.5c0 1.4-.1 2.8-.3 4.1H91c.4-1.3.6-2.6.6-3.9 0-1.4-.2-2.7-.6-4h-5.7c.1 1.3.2 2.5.2 3.8zm-3.4 13.7c3.3-1.2 6-3.6 7.7-6.6h-5.1c-.6 2.3-1.5 4.5-2.6 6.6z"></path></g><!----></svg>